# xmcd
#
# Track frame offsets:
#	150
#	11921
#	29890
#	40861
#	55052
#	67297
#	83214
#	91537
#	98627
#	118350
#	137307
#	143808
#	154401
#	163047
#	171998
#	183550
#	193243
#	204007
#
# Disc length: 2920 seconds
#
# Revision: 2
# Processed by: cddbd v1.5.2PL0 Copyright (c) Steve Scherf et al.
# Submitted via: audiograbber 1.83.01
#
DISCID=010b6612
DTITLE=Verschiedene - The World of Gospel Volume 4 CD2
DYEAR=2006
DGENRE=Gospel
TTITLE0=When The Saints go marching in
TTITLE1=Precious Lord
TTITLE2=Joy to the World
TTITLE3=I will follow hin
TTITLE4=Saved
TTITLE5=I love the Lord
TTITLE6=I saw the light
TTITLE7=Lilly of the Valey
TTITLE8=God lead us along
TTITLE9=I do  Dont you
TTITLE10=Oh the joy that came to me
TTITLE11=Never Alone
TTITLE12=Shine for Jesus
TTITLE13=Seeking for me
TTITLE14=Nothing between
TTITLE15=Turn your radio on
TTITLE16=People get Ready
TTITLE17=Oh happy day
EXTD=
EXTT0=
EXTT1=
EXTT2=
EXTT3=
EXTT4=
EXTT5=
EXTT6=
EXTT7=
EXTT8=
EXTT9=
EXTT10=
EXTT11=
EXTT12=
EXTT13=
EXTT14=
EXTT15=
EXTT16=
EXTT17=
PLAYORDER=
